<svg width="1024" height="1024" xmlns="http://www.w3.org/2000/svg">

 <g>
  <title>background</title>
  <rect fill="none" id="canvas_background" height="402" width="582" y="-1" x="-1"/>
 </g>
 <g>
  <title>Layer 1</title>
  <path fill="#5e5e5e" id="svg_1" d="m704,316.031l-96,96l160,163.969l256,-256l-96,-96l-158.75,158.781l-65.25,-66.75zm-192,515.969c-176.781,0 -320,-143.25 -320,-320c0,-176.781 143.219,-320 320,-320c88.375,0 168.375,35.844 226.25,93.75l90.562,-90.5c-81.062,-81.125 -193.062,-131.25 -316.812,-131.25c-247.438,0 -448,200.562 -448,448c0,247.438 200.562,448 448,448c247.438,0 448,-200.562 448,-448l-200.25,200.25c8.938,-11 -75,119.75 -247.75,119.75zm64,-576l-128,0l0,320l128,0l0,-320zm-128,512l128,0l0,-128l-128,0l0,128z"/>
 </g>
</svg>