<svg width="896" height="1024" xmlns="http://www.w3.org/2000/svg">

 <g>
  <title>background</title>
  <rect fill="none" id="canvas_background" height="402" width="582" y="-1" x="-1"/>
 </g>
 <g>
  <title>Layer 1</title>
  <path fill="#dd4b39" id="svg_1" d="m448,64c-247.438,0 -448,200.562 -448,448c0,247.438 200.562,448 448,448c247.438,0 448,-200.562 448,-448c0,-247.438 -200.562,-448 -448,-448zm0,768c-176.781,0 -320,-143.25 -320,-320c0,-176.781 143.219,-320 320,-320c176.75,0 320,143.219 320,320c0,176.75 -143.25,320 -320,320zm-64,-64l128,0l0,-128l-128,0l0,128zm0,-192l128,0l0,-320l-128,0l0,320z"/>
 </g>
</svg>