<svg width="896" height="1024" xmlns="http://www.w3.org/2000/svg">

 <g>
  <title>background</title>
  <rect fill="none" id="canvas_background" height="402" width="582" y="-1" x="-1"/>
 </g>
 <g>
  <title>Layer 1</title>
  <path fill="#f39c12" id="svg_1" d="m639.125,767.25c-53.375,40.125 -119.125,64.75 -191.125,64.75c-176.781,0 -320,-143.25 -320,-320c0,-45.562 9.781,-88.781 27,-128l-91,0l0,-99.469c-39.688,66.907 -64,144.063 -64,227.469c0,247.438 200.562,448 448,448c107.375,0 204.5,-39.312 281.75,-102.25l38.25,38.25l0,-192l-192,0l63.125,63.25zm-255.125,0.75l128,0l0,-128l-128,0l0,128zm128,-512l-128,0l0,320l128,0l0,-320zm384,256c0,-247.438 -200.562,-448 -448,-448c-107.406,0 -204.531,39.312 -281.656,102.344l-38.344,-38.344l0,192l192,0l-63.156,-63.156c53.437,-40.156 119.156,-64.844 191.156,-64.844c176.75,0 320,143.219 320,320c0,45.562 -9.75,88.75 -27,128l91,0l0,99.5c39.688,-66.938 64,-144 64,-227.5z"/>
 </g>
</svg>